<svg width="30" height="30" viewBox="0 0 30 30" fill="none" xmlns="http://www.w3.org/2000/svg">
<path d="M9.05185 8.9C8.45661 8.9 7.97407 9.38254 7.97407 9.97778C7.97407 10.573 8.45661 11.0556 9.05185 11.0556H25.0222C25.6175 11.0556 26.1 10.573 26.1 9.97778C26.1 9.38254 25.6175 8.9 25.0222 8.9H9.05185ZM9.05185 13.7889C8.45661 13.7889 7.97407 14.2714 7.97407 14.8667C7.97407 15.4619 8.45661 15.9444 9.05185 15.9444H25.0222C25.6175 15.9444 26.1 15.4619 26.1 14.8667C26.1 14.2714 25.6175 13.7889 25.0222 13.7889H9.05185ZM9.05185 18.6778C8.45661 18.6778 7.97407 19.1603 7.97407 19.7556C7.97407 20.3508 8.45661 20.8333 9.05185 20.8333H25.0222C25.6175 20.8333 26.1 20.3508 26.1 19.7556C26.1 19.1603 25.6175 18.6778 25.0222 18.6778H9.05185ZM4.97778 11.0556C5.57302 11.0556 6.05556 10.573 6.05556 9.97778C6.05556 9.38254 5.57302 8.9 4.97778 8.9C4.38254 8.9 3.9 9.38254 3.9 9.97778C3.9 10.573 4.38254 11.0556 4.97778 11.0556ZM4.97778 15.9444C5.57302 15.9444 6.05556 15.4619 6.05556 14.8667C6.05556 14.2714 5.57302 13.7889 4.97778 13.7889C4.38254 13.7889 3.9 14.2714 3.9 14.8667C3.9 15.4619 4.38254 15.9444 4.97778 15.9444ZM4.97778 20.8333C5.57302 20.8333 6.05556 20.3508 6.05556 19.7556C6.05556 19.1603 5.57302 18.6778 4.97778 18.6778C4.38254 18.6778 3.9 19.1603 3.9 19.7556C3.9 20.3508 4.38254 20.8333 4.97778 20.8333Z" fill="#576270" stroke="#576270" stroke-width="0.2"/>
</svg>
