<svg width="36" height="36" viewBox="0 0 36 36" fill="none" xmlns="http://www.w3.org/2000/svg">
<path d="M30.0719 0H5.98943C2.68277 0 0 2.6782 0 5.97924V30.0208C0 33.3218 2.68277 36 5.98943 36H30.0095C33.3162 36 35.9989 33.3218 35.9989 30.0208V5.97924C36.0613 2.6782 33.3786 0 30.0719 0ZM34.1897 29.398C34.1273 29.4602 34.0025 29.5225 33.9401 29.4602C29.3233 26.6575 23.8329 25.0381 18.0307 25.0381C12.2284 25.0381 6.7381 26.6575 2.12126 29.4602C2.05887 29.5225 1.93408 29.4602 1.87169 29.398C1.80931 29.2734 1.87169 29.211 1.93408 29.1487C6.17659 25.91 9.79524 21.7993 12.6028 16.9411C15.4103 12.083 17.1572 6.85121 17.8435 1.61938C17.8435 1.55709 17.9059 1.43253 18.0307 1.43253C18.1554 1.43253 18.2178 1.49481 18.2178 1.61938C18.9041 6.85121 20.651 12.083 23.4586 16.9411C26.2661 21.7993 29.9471 25.91 34.1273 29.0865C34.252 29.211 34.252 29.2734 34.1897 29.398Z" fill="#FE5000"/>
</svg>
