<svg width="36" height="36" viewBox="0 0 36 36" fill="none" xmlns="http://www.w3.org/2000/svg">
<path d="M32.4671 7.54733C30.6728 5.9871 28.7128 5.28987 26.7917 5.13872C24.8658 4.9827 22.9155 5.27036 20.9409 6.21625V4.5H14.9291V6.13337C10.6336 4.31959 5.67986 4.57313 1.80365 9.36594C-2.84293 15.095 2.38386 23.6568 7.37661 28.708C6.15768 28.864 4.93874 29.0152 3.72469 29.181C3.76369 30.0976 3.8027 31.0191 3.84658 31.9358H12.579V29.181C7.44 22.8327 4.52431 16.2749 6.75251 11.7063C8.63455 7.84963 12.0232 7.6741 14.8658 9.64881V31.926H20.9409V9.77067C23.3641 8.19093 25.4802 8.08367 26.8016 8.83453C29.8684 10.58 30.1853 13.681 29.7806 16.7575C29.2297 20.9459 26.5431 25.3292 23.5397 29.2298V31.8675H32.2818V29.1712C31.0824 29.0103 29.883 28.8543 28.6835 28.6983C33.2521 23.8127 35.7631 19.3807 35.9825 15.4752C36.1532 12.5303 35.0805 9.81459 32.4671 7.54733V7.54733ZM34.3394 17.3525C33.2326 21.5992 30.2145 25.6119 26.0263 29.5125C27.684 29.7124 29.3369 29.9172 30.9947 30.122V30.6924H24.6952V29.6344C26.8601 26.7529 28.8445 23.9347 29.7952 21.2432C30.8777 18.1813 31.8236 15.0657 30.7411 12.0622C30.2974 10.8336 29.5758 9.57564 28.6055 8.69313C27.5036 7.68873 26.153 7.14752 24.4221 7.22553C22.6913 7.30354 21.3163 7.97639 19.6879 9.12222V30.8094H16.0846V8.96129C14.266 7.69361 12.5692 7.09877 10.6677 7.22553C8.76131 7.34255 6.45997 8.58099 5.16302 12.2476C4.5243 14.0515 4.77297 16.0896 5.11427 17.8644C5.90414 21.9259 8.342 25.7874 11.2919 29.5905V30.6485H4.99725V30.122C6.65013 29.9416 8.30788 29.7709 9.96075 29.5905C8.83446 28.4204 7.74229 27.4501 6.74277 26.2701C4.80222 23.998 3.18348 21.6577 2.24247 19.2685C1.06741 16.2944 0.633475 12.9545 2.72029 10.0974C4.67058 7.42056 7.08894 6.50392 9.46341 6.21625C11.8427 5.92859 13.9394 6.59657 16.0896 8.18605V5.67505H19.6927V8.30794C21.4431 6.92324 23.2569 6.23089 25.0657 6.1285C28.3374 5.93347 31.8284 7.76674 33.5008 10.4094C34.7198 12.3499 35.0269 14.7195 34.3394 17.3525V17.3525Z" fill="#2E274D"/>
</svg>
