<svg width="30" height="30" viewBox="0 0 30 30" fill="none" xmlns="http://www.w3.org/2000/svg">
<path d="M15 20C17.7614 20 20 17.7614 20 15C20 12.2386 17.7614 10 15 10C12.2386 10 10 12.2386 10 15C10 17.7614 12.2386 20 15 20Z" stroke="#0DB2E7" stroke-width="2.4" stroke-linecap="round" stroke-linejoin="round"/>
<path d="M23.959 9.92481L23.8768 9.78249C23.65 9.38997 23.5343 8.94319 23.5419 8.48995L23.5793 6.26642C23.587 5.81202 23.3474 5.38926 22.9536 5.16235L19.5328 3.19109C19.14 2.96475 18.6555 2.96881 18.2665 3.20169L16.3677 4.33867C15.9796 4.57105 15.5357 4.69378 15.0834 4.69378H14.9187C14.4654 4.69378 14.0206 4.57052 13.632 4.33718L11.7244 3.19197C11.3341 2.95765 10.8472 2.95405 10.4535 3.18257L7.04354 5.16168C6.65167 5.38912 6.41356 5.81079 6.42118 6.26382L6.45864 8.48995C6.46626 8.94319 6.35051 9.38997 6.12377 9.78249L6.04266 9.9229C5.8158 10.3156 5.48637 10.6393 5.08967 10.8591L3.14606 11.9362C2.74769 12.157 2.50092 12.5769 2.50196 13.0324L2.51091 16.9721C2.51193 17.4248 2.75763 17.8416 3.15322 18.0617L5.0875 19.1377C5.48556 19.3592 5.81555 19.6851 6.04184 20.0805L6.12874 20.2323C6.35229 20.6228 6.46628 21.0665 6.45868 21.5164L6.42127 23.7328C6.41359 24.1873 6.65319 24.6101 7.04698 24.837L10.4678 26.8082C10.8606 27.0346 11.3451 27.0305 11.734 26.7976L13.6329 25.6606C14.021 25.4283 14.4648 25.3055 14.9172 25.3055H15.0818C15.5351 25.3055 15.9799 25.4288 16.3686 25.6621L18.2762 26.8073C18.6665 27.0417 19.1533 27.0453 19.547 26.8168L22.957 24.8376C23.3489 24.6102 23.587 24.1885 23.5794 23.7355L23.5419 21.5094C23.5343 21.0561 23.65 20.6093 23.8768 20.2168L23.9579 20.0764C24.1848 19.6837 24.5142 19.3601 24.9109 19.1402L26.8545 18.0631C27.2529 17.8424 27.4996 17.4224 27.4986 16.9669L27.4897 13.0272C27.4886 12.5745 27.2429 12.1577 26.8473 11.9377L24.9084 10.859C24.5133 10.6392 24.1852 10.3163 23.959 9.92481Z" stroke="#0DB2E7" stroke-width="2.4" stroke-linecap="round" stroke-linejoin="round"/>
</svg>
