<svg width="36" height="36" viewBox="0 0 36 36" fill="none" xmlns="http://www.w3.org/2000/svg">
<path d="M18.0036 0H18C17.3948 0.72418 14.1917 5.26381 11.3671 12.3435C10.6249 14.4692 9.27018 19.1133 9.0432 23.5989C9.0216 24.0745 9.0072 24.55 9 25.022V26.1065C9.05769 30.6281 9.78903 34.721 10.1133 36C10.1133 34.1914 10.1565 28.1673 11.5977 23.2025C13.0352 18.2414 15.777 12.502 18 9.58365C20.4103 12.6353 23.4295 19.2754 24.496 23.2314C25.5624 27.2126 26.1209 32.2854 25.8867 35.8955C26.5352 33.7986 27.0468 30.293 27.1405 26.9748C27.2306 23.6818 26.8054 18.054 24.7266 12.1885C22.6441 6.32306 18.6161 0.727782 18.0036 0Z" fill="url(#paint0_linear_33_21662)"/>
<path d="M13.7455 21.7434C13.2627 23.0224 12.3908 25.8218 12.243 28.5276C12.0702 31.8063 12.6862 35.0849 12.9348 36C12.9348 34.9119 12.9601 31.2803 13.8932 28.2862C14.8191 25.2923 16.5918 21.8407 18.0293 20.0789C19.5857 21.92 21.5349 25.9191 22.2231 28.3006C22.9112 30.7002 23.2751 33.7554 23.1238 35.9315C23.5417 34.6706 23.8732 32.5556 23.9344 30.556C23.9921 28.5709 23.7182 25.1806 22.3743 21.6461C21.0233 18.1117 18.4184 14.7358 18.0293 14.3035C17.6438 14.7358 15.5721 17.4704 13.7455 21.7434V21.7434Z" fill="url(#paint1_linear_33_21662)"/>
<defs>
<linearGradient id="paint0_linear_33_21662" x1="18.0784" y1="36.0006" x2="18.0784" y2="0" gradientUnits="userSpaceOnUse">
<stop stop-color="#0073B7"/>
<stop offset="1" stop-color="#1A93CD"/>
</linearGradient>
<linearGradient id="paint1_linear_33_21662" x1="18.0776" y1="35.9985" x2="18.0776" y2="14.3017" gradientUnits="userSpaceOnUse">
<stop stop-color="#0073B7"/>
<stop offset="1" stop-color="#1A93CD"/>
</linearGradient>
</defs>
</svg>
