<svg width="56" height="56" viewBox="0 0 56 56" fill="none" xmlns="http://www.w3.org/2000/svg">
<path d="M37.4312 18.0522L56 36.6353V14C56 9.99984 54.3223 6.39151 51.6322 3.84024L37.4312 18.0522Z" fill="#0DB2E7"/>
<path d="M51.2003 3.44726C48.7399 1.30041 45.5218 0 42 0H37.3333V17.3249L51.2003 3.44726Z" fill="#0DB2E7"/>
<path d="M10.1818 0.526992C11.3956 0.183698 12.6763 0 14 0H27.1515V27.1515H10.1818V0.526992Z" fill="#0DB2E7"/>
<path d="M37.3333 30.7732V18.7795L55.6044 37.0647L37.05 55.6334L18.7641 37.3333H30.8062L37.3027 43.8349L43.8438 37.2887L37.3333 30.7732Z" fill="#0DB2E7"/>
<path d="M37.5084 56L56 37.4941V42C56 49.732 49.732 56 42 56H37.5084Z" fill="#0DB2E7"/>
<path d="M18.0367 37.4306L36.5917 56H14C10.0013 56 6.39416 54.3236 3.84306 51.6352L18.0367 37.4306Z" fill="#0DB2E7"/>
<path d="M17.3093 37.3333H0V42C0 45.5233 1.30149 48.7426 3.44994 51.2034L17.3093 37.3333Z" fill="#0DB2E7"/>
</svg>
